<?xml version="1.0" encoding="UTF-8"?>
<!-- Generated by Pixelmator Pro 3.8 -->
<svg width="297" height="64" viewBox="0 0 297 64" xmlns="http://www.w3.org/2000/svg">
    <g id="Page-1-Copy">
        <g id="hLogo2">
            <linearGradient id="linearGradient1" x1="85.118989" y1="3.093758" x2="85.118989" y2="66.880723" gradientUnits="userSpaceOnUse">
                <stop offset="1e-05" stop-color="#ffb171" stop-opacity="1"/>
                <stop offset="1" stop-color="#e7612f" stop-opacity="1"/>
            </linearGradient>
            <path id="Shape-Copy" fill="url(#linearGradient1)" fill-rule="evenodd" stroke="none" d="M 55.766277 15.588539 C 72.593849 8.454861 87.421341 10.975685 97.127739 14.639175 L 97.420303 14.750534 L 99.024055 15.364883 C 100.239464 18.419827 101.012848 21.562218 101.340034 24.723293 C 94.156631 21.779247 81.334023 18.908768 66.524673 26.096588 C 61.786457 22.920166 58.29549 19.318481 55.766277 15.588539 Z M 52.508087 60.689007 C 59.51968 55.05991 67.202766 45.449146 68.306801 30.115524 C 74.245667 27.210312 79.805038 26.110233 84.754051 26.028473 C 81.999634 44.25148 72.137848 55.801266 64.046181 62.383865 L 63.801525 62.581818 L 62.833717 63.359173 C 59.274807 62.999275 55.797215 62.094257 52.508087 60.689007 Z M 59.662468 45.237617 C 42.373665 32.008965 40.722206 13.852497 40.896317 6.23484 L 40.95887 3.915699 C 42.269672 2.553978 43.698219 1.281868 45.247894 0.122822 C 46.362114 7.857025 50.360729 20.534386 63.928116 29.690086 C 63.49934 35.85984 61.89024 40.98777 59.662468 45.237617 Z"/>
            <path id="VolleyCLUB" fill="#fffbfb" stroke="none" d="M 103.300545 52.587852 C 104.449944 52.587852 105.244064 52.059959 105.68293 51.004173 L 105.68293 51.004173 L 113.739098 32.351929 L 106.591988 32.351929 L 101.889938 45.402634 C 101.743652 45.813217 101.607819 46.223801 101.48243 46.634384 C 101.35704 47.044968 101.252548 47.475105 101.168968 47.924793 L 101.168968 47.924793 L 100.353943 47.924793 C 100.374832 47.494659 100.390503 47.054741 100.400955 46.605057 C 100.411407 46.155373 100.395737 45.715462 100.353943 45.285324 L 100.353943 45.285324 L 99.601608 32.351929 L 92.767967 32.351929 L 95.213036 50.76955 C 95.275734 51.277889 95.505608 51.708027 95.902664 52.059959 C 96.299728 52.411884 96.790833 52.587852 97.375969 52.587852 L 97.375969 52.587852 L 103.300545 52.587852 Z M 119.663673 52.939777 C 121.753479 52.939777 123.446213 52.705162 124.741882 52.235924 C 126.037567 51.766682 127.035439 50.98951 127.735527 49.904388 C 128.435608 48.819275 128.921478 47.357792 129.193161 45.519943 C 129.485733 43.564781 129.391693 42.005539 128.911026 40.842216 C 128.430374 39.678898 127.54744 38.83329 126.262215 38.305397 C 124.97699 37.777504 123.289474 37.513557 121.199677 37.513557 C 119.109879 37.513557 117.4067 37.753067 116.090126 38.232079 C 114.773544 38.711094 113.770439 39.498047 113.080811 40.592934 C 112.391174 41.687828 111.90007 43.173748 111.607506 45.050705 C 111.314934 46.966766 111.419426 48.501564 111.920975 49.655109 C 112.422523 50.808655 113.321136 51.644485 114.616814 52.162605 C 115.912483 52.680725 117.594772 52.939777 119.663673 52.939777 Z M 119.914452 48.775284 C 119.371101 48.775284 118.968819 48.692192 118.707588 48.526005 C 118.446373 48.359814 118.310532 48.042099 118.300079 47.572861 C 118.289635 47.103622 118.347099 46.419319 118.472496 45.519943 C 118.639671 44.444603 118.817314 43.633213 119.005386 43.085766 C 119.193466 42.538322 119.444244 42.16684 119.757713 41.971329 C 120.07119 41.77581 120.51004 41.678051 121.074287 41.678051 C 121.596741 41.678051 121.972908 41.766029 122.202782 41.941998 C 122.432663 42.117958 122.558044 42.44545 122.578949 42.924465 C 122.599838 43.403481 122.53714 44.112228 122.390862 45.050705 C 122.223679 46.06739 122.05127 46.844566 121.873642 47.382236 C 121.696007 47.919907 121.460907 48.286495 121.168327 48.482014 C 120.875755 48.677528 120.457794 48.775284 119.914452 48.775284 Z M 135.995453 52.998432 C 136.350708 52.998432 136.815689 52.973995 137.390396 52.925114 C 137.965088 52.876236 138.53978 52.802917 139.114471 52.705162 C 139.689178 52.607407 140.143692 52.470543 140.478073 52.294575 L 140.478073 52.294575 L 140.101898 48.306046 L 138.848022 48.306046 C 138.283783 48.306046 137.918076 48.2425 137.750885 48.115417 C 137.583694 47.988335 137.541901 47.739052 137.625504 47.367573 L 137.625504 47.367573 L 139.976517 32.058655 L 133.425003 32.058655 L 130.885895 48.775284 C 130.718719 50.065693 131.089645 51.092152 131.998703 51.854664 C 132.907776 52.61718 134.240021 52.998432 135.995453 52.998432 Z M 147.28035 52.998432 C 147.63562 52.998432 148.100601 52.973995 148.675293 52.925114 C 149.25 52.876236 149.824707 52.802917 150.399399 52.705162 C 150.974075 52.607407 151.428604 52.470543 151.762985 52.294575 L 151.762985 52.294575 L 151.386826 48.306046 L 150.13295 48.306046 C 149.56868 48.306046 149.202988 48.2425 149.035797 48.115417 C 148.868607 47.988335 148.826813 47.739052 148.9104 47.367573 L 148.9104 47.367573 L 151.261429 32.058655 L 144.709915 32.058655 L 142.170807 48.775284 C 142.003616 50.065693 142.374573 51.092152 143.28363 51.854664 C 144.192688 52.61718 145.524933 52.998432 147.28035 52.998432 Z M 161.699966 52.939777 C 162.535889 52.939777 163.382263 52.900677 164.239075 52.822472 C 165.095886 52.744263 165.942261 52.607407 166.778183 52.411884 C 167.614105 52.21637 168.397781 51.9622 169.129211 51.649376 L 169.129211 51.649376 L 168.690353 47.895466 C 168.0634 47.954124 167.326752 48.007889 166.480392 48.056763 C 165.634003 48.105644 164.829453 48.144745 164.066681 48.174072 C 163.303894 48.2034 162.703079 48.218063 162.264221 48.218063 C 161.553696 48.218063 161.020798 48.144745 160.665527 47.998116 C 160.310257 47.851475 160.106491 47.543533 160.05426 47.074295 C 160.049896 47.035194 160.04631 46.994392 160.043488 46.951893 L 160.0401 46.880451 L 163.956955 46.605057 C 165.259598 46.51545 166.355911 46.368332 167.24588 46.163719 L 167.48349 46.106491 C 168.413452 45.871872 169.139648 45.510162 169.662109 45.021378 C 170.184555 44.532585 170.508469 43.848282 170.633865 42.968456 C 170.821945 41.77581 170.712234 40.778675 170.304718 39.977058 C 169.897202 39.175446 169.09787 38.564457 167.906662 38.144096 C 166.715485 37.723736 165.033203 37.513557 162.859802 37.513557 C 161.459641 37.513557 160.20578 37.62109 159.098175 37.836159 C 157.99057 38.051224 157.039719 38.43248 156.24559 38.979927 C 155.451477 39.527374 154.803635 40.29966 154.302094 41.296795 C 153.800537 42.293926 153.466171 43.574558 153.298981 45.138687 C 153.131805 46.800575 153.257202 48.213177 153.67514 49.376495 C 154.093094 50.539818 154.939484 51.42453 156.214249 52.030632 C 157.489014 52.636734 159.317612 52.939777 161.699966 52.939777 Z M 160.442276 43.87117 L 160.46788 43.762589 C 160.517365 43.558212 160.567566 43.371712 160.6185 43.203079 C 160.754349 42.753387 160.916306 42.406349 161.104385 42.161953 C 161.292465 41.917557 161.532791 41.741592 161.825363 41.63406 C 162.11792 41.526527 162.483643 41.472755 162.922501 41.472755 C 163.361374 41.453205 163.685287 41.472755 163.894257 41.53141 C 164.103241 41.590069 164.239075 41.687828 164.301773 41.824684 C 164.364471 41.961548 164.385361 42.137516 164.364471 42.352585 C 164.322662 42.724064 164.212952 42.997784 164.035339 43.173748 C 163.857681 43.349716 163.622574 43.471912 163.330017 43.540344 C 163.037445 43.608772 162.671722 43.66254 162.23288 43.701645 L 162.23288 43.701645 L 160.442276 43.87117 Z M 173.01622 58.629299 C 174.792557 58.707508 176.41214 58.526653 177.875015 58.086742 C 179.337875 57.646832 180.680573 56.942974 181.903107 55.975166 C 183.125626 55.007362 184.228012 53.800049 185.210205 52.35323 C 185.460983 52.001305 185.779678 51.448975 186.166306 50.696232 C 186.552902 49.943497 186.970856 49.063671 187.420166 48.056763 C 187.869476 47.049858 188.313568 45.969627 188.752411 44.816086 C 189.191269 43.66254 189.583099 42.494331 189.927933 41.311459 C 190.272751 40.128586 190.518311 38.999481 190.664581 37.924141 L 190.664581 37.924141 L 183.611511 37.924141 C 183.339844 39.683784 183.042038 41.267467 182.718124 42.675182 C 182.394196 44.082901 182.018036 45.378193 181.58963 46.561066 C 181.344818 47.236996 181.071014 47.901749 180.768204 48.555332 L 180.606781 48.892597 L 179.849869 48.892597 C 179.545898 48.892597 179.380096 48.763329 179.352463 48.504799 L 179.348312 48.423359 L 179.097565 37.924141 L 171.887741 37.924141 L 173.831253 51.033501 C 173.893951 51.463638 174.102936 51.830227 174.458191 52.133278 C 174.813461 52.436329 175.252304 52.587852 175.774765 52.587852 L 175.774765 52.587852 L 178.245071 52.587852 L 178.132889 52.702412 C 177.706757 53.123997 177.27182 53.468594 176.828079 53.736202 L 176.605453 53.863594 C 176.009872 54.186195 175.382935 54.445251 174.72464 54.640774 C 174.06636 54.836288 173.361053 55.061127 172.608734 55.315304 L 172.608734 55.315304 L 173.01622 58.629299 Z M 200.288101 52.939777 C 201.876343 52.939777 203.234726 52.866463 204.36322 52.719826 C 205.491684 52.573189 206.630646 52.333679 207.780029 52.001305 L 207.780029 52.001305 L 207.529251 47.338245 C 206.526154 47.416451 205.512604 47.475105 204.488586 47.514206 C 203.464615 47.553314 202.168915 47.572861 200.601578 47.572861 C 199.828339 47.572861 199.285004 47.445778 198.971527 47.191605 C 198.658066 46.937439 198.506561 46.45842 198.516998 45.754562 C 198.527451 45.050705 198.626724 44.034019 198.814804 42.70451 C 198.981979 41.511864 199.154373 40.55872 199.332031 39.845085 C 199.509659 39.131454 199.72908 38.598671 199.990311 38.246742 C 200.251541 37.894814 200.570236 37.660194 200.946396 37.542885 C 201.322556 37.425575 201.792755 37.36692 202.356995 37.36692 C 203.318314 37.36692 204.154236 37.371807 204.864761 37.381584 C 205.575302 37.391357 206.259689 37.396248 206.917984 37.396248 C 207.576263 37.396248 208.281586 37.406021 209.033905 37.425575 L 209.033905 37.425575 L 209.817581 32.821167 C 209.12796 32.625656 208.443542 32.469238 207.764343 32.351929 C 207.085175 32.234619 206.343292 32.146637 205.538727 32.087982 C 204.734146 32.029327 203.788513 32 202.701828 32 C 200.904587 32 199.373825 32.156418 198.109482 32.469238 C 196.845154 32.782066 195.800262 33.31485 194.974792 34.067585 C 194.149323 34.82032 193.480591 35.861443 192.968582 37.190956 C 192.456589 38.520466 192.043839 40.201904 191.730392 42.235271 C 191.333328 44.894295 191.36467 47.005867 191.824417 48.569996 C 192.28418 50.134121 193.208908 51.253452 194.598618 51.927986 C 195.988342 52.602516 197.884827 52.939777 200.288101 52.939777 Z M 215.021194 52.705162 C 216.818405 52.705162 218.636536 52.685608 220.475555 52.646507 C 222.31459 52.607407 223.955063 52.49987 225.397034 52.323902 L 225.397034 52.323902 L 225.52243 47.543533 L 218.37532 47.543533 C 217.894653 47.543533 217.575958 47.455551 217.41922 47.279587 C 217.262482 47.103622 217.205032 46.800575 217.246811 46.370438 L 217.246811 46.370438 L 219.472458 32.351929 L 212.638809 32.351929 L 210.319138 47.983448 C 210.172852 48.88282 210.282562 49.689323 210.648285 50.402962 C 211.013992 51.116592 211.573029 51.678699 212.325333 52.089287 C 213.077682 52.49987 213.976288 52.705162 215.021194 52.705162 Z M 236.337143 52.998432 C 238.63591 52.998432 240.480164 52.724709 241.869858 52.177269 C 243.259583 51.629822 244.325394 50.725559 245.067261 49.464481 C 245.809143 48.2034 246.336823 46.497524 246.650299 44.346848 L 246.650299 44.346848 L 248.499771 32.351929 L 241.697464 32.351929 L 239.910675 44.112228 C 239.722595 45.187569 239.518829 46.028286 239.299423 46.634384 C 239.079987 47.240486 238.756073 47.665733 238.327667 47.910126 C 237.899261 48.154526 237.287994 48.276718 236.493866 48.276718 C 235.741531 48.276718 235.187729 48.164299 234.832489 47.939457 C 234.477219 47.714607 234.278671 47.313801 234.236877 46.73703 C 234.195084 46.160259 234.257782 45.363533 234.424957 44.346848 L 234.424957 44.346848 L 236.243088 32.351929 L 229.472137 32.351929 L 227.654022 44.112228 C 227.36145 46.262901 227.492065 47.988335 228.045853 49.288513 C 228.599655 50.588699 229.571411 51.532066 230.961121 52.118614 C 232.350845 52.705162 234.142838 52.998432 236.337143 52.998432 Z M 248.531097 52.587852 L 249.549881 52.64325 C 250.225571 52.678005 250.894302 52.70842 251.556076 52.734489 C 252.548752 52.77359 253.645889 52.798027 254.847519 52.807808 C 255.808823 52.815628 256.907227 52.82032 258.142731 52.821884 L 259.095032 52.822472 C 260.892242 52.822472 262.370789 52.685608 263.53064 52.411884 C 264.69046 52.138161 265.583862 51.634712 266.210785 50.901527 C 266.837738 50.168339 267.24527 49.127216 267.433319 47.778152 C 267.684082 46.096718 267.50647 44.776981 266.900421 43.818954 C 266.294403 42.860924 265.134552 42.313477 263.420898 42.176617 L 263.420898 42.176617 L 263.452271 42.000652 C 264.95694 41.883343 266.022736 41.472755 266.649658 40.768902 C 267.276611 40.065041 267.69455 39.019028 267.903534 37.630867 C 268.112518 36.203598 267.981903 35.089157 267.511688 34.28754 C 267.041504 33.485924 266.226471 32.923813 265.06662 32.601212 C 263.906799 32.27861 262.36557 32.11731 260.442963 32.11731 C 259.189087 32.11731 258.060608 32.1222 257.057495 32.131977 C 256.054352 32.14175 255.113968 32.161301 254.236252 32.190628 C 253.358521 32.219959 252.470383 32.273724 251.571777 32.351929 L 251.571777 32.351929 L 248.531097 52.587852 Z M 257.591919 36.516426 L 260.223511 36.516426 C 260.59967 36.516426 260.881805 36.565304 261.069885 36.663063 C 261.257965 36.760818 261.378113 36.922119 261.430389 37.146965 C 261.482635 37.371807 261.477417 37.679745 261.414703 38.070778 C 261.331116 38.657326 261.210968 39.102123 261.05423 39.405174 C 260.897491 39.708229 260.672821 39.913517 260.38028 40.021049 C 260.087677 40.128586 259.669739 40.182354 259.126373 40.182354 L 259.126373 40.182354 L 257.040649 40.182354 L 257.591919 36.516426 Z M 257.778473 48.423359 C 257.189148 48.423359 256.619568 48.422478 256.069763 48.420715 L 255.802841 48.420498 L 256.463409 44.024246 L 259.000977 44.024246 C 259.45816 44.024246 259.815277 44.065407 260.072418 44.147739 L 260.176514 44.185547 C 260.437714 44.293076 260.59967 44.488594 260.662384 44.772095 C 260.725067 45.055592 260.71463 45.471062 260.631042 46.018509 C 260.52652 46.683266 260.38028 47.186714 260.1922 47.52887 C 260.00412 47.871025 259.721954 48.105644 259.345825 48.232727 C 258.969635 48.359814 258.447174 48.423359 257.778473 48.423359 Z"/>
        </g>
    </g>
</svg>
