<svg xmlns="http://www.w3.org/2000/svg" version="1.1" xmlns:xlink="http://www.w3.org/1999/xlink" width="173px" height="180px"><svg xmlns="http://www.w3.org/2000/svg" version="1.1" xmlns:xlink="http://www.w3.org/1999/xlink" width="173px" height="180px"><svg xmlns="http://www.w3.org/2000/svg" xmlns:xlink="http://www.w3.org/1999/xlink" width="173px" height="180px" viewBox="0 0 173 180" version="1.1"><title>logo1</title><defs><linearGradient x1="73.168378%" y1="4.69814595%" x2="73.168378%" y2="105.568873%" id="linearGradient-1"><stop stop-color="#FFB171" offset="0%"></stop><stop stop-color="#E7612F" offset="100%"></stop></linearGradient></defs><g id="Page-1-Copy" stroke="none" stroke-width="1" fill="none" fill-rule="evenodd"><g id="logo" fill="url(#linearGradient-1)"><path d="M43,43.9824262 C91.0009573,23.604164 133.296649,30.8052206 160.984339,41.2704494 L161.81888,41.5885516 L166.393613,43.3435299 C169.860581,52.0703607 172.066665,61.0470027 173,70.0770163 C152.509204,61.6669679 115.932472,53.4670738 73.6885297,74 C60.1726807,64.9261455 50.2146332,54.6374802 43,43.9824262 Z M33,172.418102 C53.0045628,156.434373 74.924945,129.144734 78.074827,85.6051335 C95.0188305,77.3558223 110.880108,74.2321609 125,74 C117.14144,125.743975 89.0050749,158.539437 65.9189734,177.230633 L65.2209665,177.792721 L62.4597436,180 C52.3059259,178.978087 42.3841049,176.408303 33,172.418102 Z M53.7823159,128 C4.26366492,90.4675804 -0.466442174,38.9539274 0.0322444326,17.3410624 L0.211412038,10.7611772 C3.9658153,6.89769479 8.0574561,3.28844868 12.4960434,0 C15.6873955,21.9435339 27.1402477,57.9118236 66,83.8884399 C64.7718992,101.393307 60.1631025,115.94231 53.7823159,128 Z"></path></g></g></svg></svg><style>@media (prefers-color-scheme: light) { :root { filter: none; } }
@media (prefers-color-scheme: dark) { :root { filter: none; } }
</style></svg>