<?xml version="1.0" encoding="UTF-8"?>
<svg id="Layer_2" data-name="Layer 2" xmlns="http://www.w3.org/2000/svg" viewBox="0 0 209.45 209.8">
  <defs>
    <style>
      .cls-1 {
        fill: #E7A800;
      }
    </style>
  </defs>
  <g id="Work">
    <g>
      <path class="cls-1" d="M12.97,83.2l-8.1-9.97,2.61-7.3,12.57-2.53-2.18,6.1-8.57,1.47,5.74,6.44-2.07,5.79ZM1,104.85c-.43-.94-.72-2.13-.89-3.58-.16-1.45-.15-3.19.02-5.22.17-2.05.46-3.79.85-5.2.39-1.42.88-2.55,1.46-3.42.58-.86,1.24-1.47,1.97-1.82s1.54-.49,2.39-.42h.09c.81.08,1.55.35,2.21.83.66.48,1.21,1.18,1.64,2.12.43.94.73,2.13.9,3.57.17,1.44.17,3.16,0,5.17-.18,2.08-.47,3.84-.87,5.26-.4,1.42-.9,2.56-1.48,3.42-.58.86-1.24,1.46-1.97,1.81-.73.35-1.52.49-2.35.41h-.09c-.83-.08-1.58-.35-2.25-.81-.66-.47-1.21-1.17-1.64-2.11ZM3.37,98.48c.06.62.17,1.14.35,1.56.17.42.4.74.69.96.29.22.62.35.99.38h.09c.45.05.84-.03,1.17-.22.33-.19.61-.49.85-.89.23-.4.42-.9.57-1.5.15-.6.25-1.28.32-2.05.07-.79.08-1.5.05-2.11-.04-.62-.14-1.15-.3-1.58-.16-.44-.39-.78-.69-1.03-.3-.25-.67-.39-1.12-.43h-.09c-.39-.04-.74.04-1.06.24-.32.2-.6.5-.85.9-.24.4-.44.91-.6,1.52s-.27,1.29-.33,2.07c-.07.83-.08,1.56-.02,2.18ZM4.52,120.38l7.62-1.27-1.01-6.07-10.84,1.8,2.47,14.86,3.22-.54-1.46-8.79ZM17.15,138.13l-2.24-5.73-10.23,3.99,5.48,14.03,3.04-1.19-3.24-8.3,7.19-2.81ZM13.39,156.72l9.8,14.44,2.7-1.83-6.56-9.66.87-.59,5.62,8.28,1.95-1.32-5.62-8.28.87-.59,6.51,9.58,2.7-1.83-9.75-14.36-9.09,6.17ZM45.82,177.85l-5.74.58-.13-5.74-5.27-4.65.46,11.01-2,2.27,4.61,4.07,2-2.27,11.03-.88-4.97-4.38ZM69.4,192.77c.3.41.46.8.45,1.19s-.11.78-.31,1.2h0c-.16.32-.35.57-.57.77-.22.2-.5.33-.83.39-.33.06-.71.05-1.15-.04-.44-.09-.95-.26-1.55-.53l-.04.07c.78.44,1.39.86,1.81,1.25.42.39.72.76.89,1.1.17.34.23.67.19.98-.04.31-.13.6-.27.88v.03c-.22.4-.48.74-.79,1.01-.31.27-.76.42-1.34.45-.58.03-1.32-.1-2.23-.38-.91-.28-2.07-.77-3.47-1.48l-10.81-5.46,4.96-9.8,10.98,5.55c1.11.56,1.99,1.07,2.65,1.53.65.46,1.13.89,1.44,1.3ZM62.64,196.29c0-.12-.08-.25-.22-.4-.14-.15-.37-.32-.69-.52-.32-.2-.75-.43-1.3-.71l-3.64-1.84-.76,1.5,3.61,1.83c.56.28,1.01.49,1.36.63.35.14.62.22.83.24.2.03.36,0,.46-.05.1-.06.18-.15.24-.27h0c.07-.15.1-.28.1-.4ZM63.77,192.85c0-.09-.06-.21-.18-.34-.12-.13-.32-.29-.61-.47s-.69-.4-1.21-.67l-3.39-1.71-.66,1.3,3.39,1.71c.5.25.91.45,1.21.57.31.13.55.2.73.22.18.02.32,0,.4-.05.09-.06.16-.14.22-.25v-.03c.07-.1.09-.2.09-.29ZM89.64,197.5l4.47,12.18-6.29-1.34-.76-2.25-7.41-1.58-1.59,1.75-5.95-1.27,8.95-9.33,8.59,1.83ZM85.98,202.88l-1.31-3.88-2.75,3.02,4.05.86ZM107,206.34l-.25-7.72-6.15.2.35,10.98,15.06-.48-.1-3.26-8.91.28ZM128.09,203.64l-1.85-7.5-5.97,1.47,2.63,10.66,14.62-3.61-.78-3.17-8.65,2.14ZM169.27,183.47c-.28-.43-.69-.69-1.21-.78-.53-.09-1.12-.07-1.79.08-.67.14-1.38.37-2.14.68-.76.32-1.52.67-2.28,1.05-.76.39-1.49.78-2.2,1.18-.7.4-1.34.75-1.9,1.04-.56.3-1.03.52-1.39.67-.37.15-.59.17-.66.05l-.04-.07c-.04-.06-.05-.14-.02-.23.03-.09.12-.22.29-.38.16-.16.41-.36.75-.61.34-.25.8-.57,1.38-.96.5-.33.93-.59,1.31-.79.38-.2.7-.33.98-.41.27-.08.49-.11.66-.08s.29.1.37.22l.05.08,5.25-3.49-.1-.16c-.3-.44-.71-.77-1.23-.97-.52-.2-1.19-.24-1.99-.11-.8.13-1.74.44-2.83.94-1.08.49-2.34,1.22-3.77,2.17-1.16.77-2.2,1.53-3.13,2.29-.93.75-1.68,1.48-2.26,2.19-.58.71-.96,1.38-1.13,2.02-.17.64-.08,1.23.28,1.77l.12.18c.28.43.69.69,1.22.78.53.1,1.13.08,1.8-.06.67-.13,1.39-.35,2.16-.65.77-.3,1.54-.64,2.31-1.01.77-.37,1.51-.75,2.23-1.13.71-.38,1.35-.72,1.92-1.01.57-.29,1.03-.51,1.4-.66s.58-.17.65-.07l.04.07c.04.05.03.13,0,.23-.03.1-.14.24-.33.42-.18.18-.46.41-.83.69-.37.28-.87.64-1.51,1.06-.69.46-1.28.81-1.76,1.05-.49.24-.89.41-1.21.49-.32.09-.57.11-.74.07-.18-.04-.3-.12-.38-.23l-.05-.08-5.25,3.49.13.2c.33.5.77.85,1.33,1.05.56.2,1.26.22,2.1.06s1.86-.53,3.04-1.1c1.18-.57,2.56-1.38,4.13-2.43,1.37-.91,2.53-1.77,3.5-2.57.97-.8,1.72-1.57,2.26-2.28.54-.72.86-1.39.96-2.01.1-.62-.03-1.21-.39-1.75l-.13-.2ZM187.19,163.28l-.05-.04-3.96,4.5.05.04c.13.12.2.3.2.55,0,.25-.07.55-.22.9-.14.35-.35.74-.63,1.17s-.63.88-1.05,1.36c-.61.69-1.16,1.23-1.65,1.61-.49.38-.94.64-1.35.77-.4.13-.77.16-1.09.07-.32-.08-.62-.24-.89-.48l-.07-.06c-.3-.26-.51-.55-.64-.87-.13-.32-.16-.68-.07-1.09.08-.41.27-.87.58-1.39.3-.52.75-1.11,1.34-1.78.45-.51.87-.94,1.25-1.28s.74-.61,1.06-.79c.32-.18.6-.29.84-.31.24-.03.43.03.58.16l.06.05,3.96-4.5-.06-.05c-.44-.39-.98-.63-1.63-.72-.65-.1-1.4.02-2.25.33-.85.32-1.8.87-2.85,1.67-1.05.79-2.18,1.88-3.4,3.27-1.15,1.3-2.08,2.55-2.8,3.74-.72,1.19-1.22,2.3-1.48,3.34-.27,1.03-.3,1.97-.09,2.82.21.85.66,1.58,1.36,2.2l.07.06c.71.63,1.51.99,2.38,1.09s1.8-.06,2.79-.46c.99-.4,2.04-1.04,3.12-1.92,1.09-.88,2.21-1.98,3.37-3.29,1.22-1.38,2.15-2.64,2.8-3.77.65-1.13,1.08-2.15,1.3-3.04.21-.89.23-1.66.06-2.3-.17-.64-.48-1.16-.92-1.54ZM191.02,141.98l3.42,1.65-3.54,7.32-3.42-1.65-2.68,5.54,9.89,4.78,2.68-5.54-3.53-1.71,3.54-7.32,3.53,1.71,2.68-5.54-9.89-4.78-2.68,5.54ZM208.83,117.46c.03,1.46-.12,3.19-.47,5.2-.35,2.03-.79,3.73-1.3,5.11s-1.1,2.47-1.75,3.28-1.36,1.36-2.12,1.65c-.77.29-1.57.36-2.42.21l-.09-.02c-.8-.14-1.52-.48-2.13-1.01-.62-.53-1.1-1.28-1.45-2.26-.35-.97-.54-2.19-.59-3.64s.1-3.17.45-5.15c.36-2.06.8-3.78,1.33-5.16.53-1.38,1.12-2.47,1.77-3.28.65-.8,1.36-1.35,2.12-1.63.76-.28,1.55-.35,2.38-.21l.09.02c.82.14,1.55.48,2.17,1,.62.52,1.1,1.27,1.45,2.24.35.97.54,2.19.57,3.64ZM205.34,119.96c0-.62-.07-1.15-.21-1.58-.14-.43-.34-.77-.6-1.02-.26-.25-.58-.4-.95-.47l-.09-.02c-.44-.08-.84-.03-1.18.13-.35.16-.65.43-.92.81-.27.38-.5.86-.7,1.44-.2.58-.36,1.25-.49,2.02-.14.78-.21,1.48-.23,2.1-.02.62.04,1.15.16,1.6.12.45.32.81.6,1.08.28.27.64.45,1.08.52l.09.02c.38.07.74.01,1.08-.16.34-.17.65-.45.92-.83.28-.38.52-.87.73-1.46.21-.59.38-1.27.51-2.03.14-.82.21-1.55.21-2.17ZM209.21,93.07c.23,2.05.29,3.8.19,5.27-.11,1.47-.36,2.68-.76,3.64-.4.96-.92,1.69-1.58,2.18-.65.49-1.41.78-2.26.88h-.09c-.81.1-1.59-.02-2.33-.36-.74-.34-1.42-.92-2.02-1.76-.61-.84-1.13-1.95-1.59-3.33-.45-1.38-.79-3.07-1.02-5.06-.24-2.08-.29-3.85-.18-5.33.12-1.47.38-2.68.78-3.64.4-.96.93-1.68,1.58-2.16.65-.48,1.39-.77,2.22-.87h.09c.83-.1,1.62.01,2.36.34.74.33,1.42.91,2.02,1.74.61.84,1.13,1.95,1.57,3.34.44,1.39.78,3.09,1.01,5.12ZM205.97,93.47c-.09-.83-.23-1.54-.41-2.14-.18-.6-.39-1.08-.65-1.46s-.54-.65-.87-.81c-.32-.16-.67-.22-1.05-.18h-.09c-.45.06-.81.21-1.1.47-.29.25-.51.6-.66,1.04s-.24.96-.26,1.58c-.03.61,0,1.3.09,2.07.09.79.21,1.48.37,2.08.16.6.36,1.1.6,1.49.25.4.54.69.88.87.34.18.74.25,1.18.2h.09c.38-.05.72-.2.99-.46.28-.26.49-.61.65-1.05.16-.44.26-.98.29-1.6.03-.62,0-1.32-.08-2.09ZM195.11,78.55l10.29-3.85-5.28-14.11-3.06,1.14,3.13,8.35-7.23,2.71,2.16,5.76ZM26.15,40.17c.36.36.81.53,1.35.52.54-.01,1.12-.15,1.75-.42.63-.27,1.29-.62,1.98-1.07.69-.45,1.38-.93,2.06-1.45s1.33-1.03,1.95-1.56c.62-.52,1.18-.98,1.68-1.38.5-.4.91-.71,1.24-.93.33-.22.54-.29.63-.2l.06.06s.06.12.05.22c-.01.1-.09.26-.24.47-.14.21-.37.49-.67.85-.31.35-.73.8-1.27,1.34-.58.59-1.09,1.05-1.51,1.38s-.79.58-1.08.72c-.3.15-.53.22-.72.22-.18,0-.32-.05-.42-.15l-.07-.07-4.44,4.48.17.17c.42.42.93.67,1.51.76.58.09,1.28-.03,2.07-.36.8-.33,1.72-.89,2.76-1.69,1.04-.8,2.23-1.87,3.56-3.21,1.16-1.17,2.13-2.24,2.91-3.22.78-.98,1.37-1.88,1.75-2.69.39-.81.57-1.53.54-2.16-.02-.63-.27-1.18-.74-1.64l-.17-.17c-.36-.36-.81-.53-1.34-.52-.53.02-1.11.16-1.74.43-.62.27-1.28.64-1.95,1.1s-1.35.96-2.02,1.49c-.67.53-1.31,1.06-1.91,1.59-.61.53-1.16,1-1.65,1.4-.49.41-.9.72-1.23.94-.33.22-.54.28-.64.19l-.06-.06c-.05-.05-.07-.13-.07-.22,0-.1.07-.24.2-.43.13-.19.33-.44.61-.75.28-.31.67-.72,1.16-1.21.42-.42.8-.77,1.13-1.04.33-.27.62-.47.87-.6.25-.13.46-.21.63-.21.17,0,.31.04.41.14l.07.07,4.44-4.48-.13-.13c-.38-.38-.85-.61-1.4-.71-.56-.09-1.21,0-1.97.29-.76.29-1.62.78-2.58,1.49-.96.7-2.05,1.66-3.26,2.88-.98.99-1.85,1.94-2.6,2.87-.75.92-1.35,1.79-1.77,2.6-.43.81-.66,1.54-.7,2.21-.04.66.17,1.22.63,1.68l.16.16ZM64.58,19.62l-1.67-2.8-10.03,5.97-.54-.9,8.6-5.12-1.2-2.02-8.6,5.12-.54-.9,9.95-5.93-1.67-2.8-14.91,8.88,5.62,9.44,14.99-8.93ZM75.02,15.71l-1.62-6.05-.49-1.48.09-.02,5.63,6.58,3.61-.97,1.58-8.51.09-.02.31,1.52,1.62,6.05,5.37-1.44-2.84-10.61-7.76,2.08-1.17,6.86-4.47-5.35-8.15,2.19,2.84,10.61,5.36-1.44ZM114.66,7.86l-11.67-.09v-1.05s10.02.08,10.02.08l.02-2.35-10.01-.08v-1.05s11.59.09,11.59.09l.03-3.26-17.35-.14-.09,10.98,17.45.14.03-3.26ZM135.96,9.66l-.42,1.51-6.34-8.33-5.99-1.67-2.95,10.58,5.5,1.53,1.34-4.79.42-1.51,6.53,8.61,5.74,1.6,2.95-10.58-5.5-1.53-1.28,4.58ZM154.11,25.36c-1.75-1.09-3.17-2.12-4.25-3.12-1.08-.99-1.88-1.94-2.39-2.85-.51-.91-.75-1.77-.73-2.59.02-.82.26-1.59.71-2.32l.05-.08c.43-.69,1.01-1.23,1.73-1.6.72-.38,1.6-.54,2.64-.5,1.03.04,2.23.31,3.59.81,1.36.5,2.9,1.28,4.61,2.34,1.78,1.1,3.21,2.16,4.29,3.16,1.08,1,1.87,1.96,2.38,2.87.5.91.74,1.77.72,2.58-.02.81-.25,1.57-.69,2.28l-.05.08c-.44.71-1.02,1.26-1.74,1.64-.72.38-1.59.55-2.62.51-1.03-.04-2.23-.32-3.59-.83-1.36-.51-2.91-1.31-4.64-2.38ZM154.11,21.33c.47.41,1.03.82,1.69,1.23.71.44,1.36.78,1.93,1,.58.23,1.09.36,1.55.4.45.03.84-.02,1.17-.18.33-.15.59-.39.79-.71l.05-.08c.24-.38.34-.76.32-1.15-.02-.38-.16-.77-.41-1.16-.25-.39-.61-.78-1.08-1.18-.47-.4-1.03-.8-1.69-1.21-.68-.42-1.3-.75-1.86-1-.57-.25-1.08-.4-1.55-.45-.46-.05-.87,0-1.23.15-.35.16-.65.42-.89.81l-.05.08c-.2.33-.29.68-.26,1.06.03.38.17.77.42,1.17.25.4.61.81,1.08,1.22ZM188.43,40.78l-4.21-4.48-8.34,2.18,2.59-8.3-4.44-4.72-3.47,12.35,5.31,5.65,12.56-2.68Z"/>
      <g>
        <path class="cls-1" d="M171.35,68.35h-28.88c-9.55-9.87-22.93-16-37.75-16s-28.2,6.13-37.75,16h-28.88c-1.5,15.13,3.66,30.4,14.32,41.53,2.51,26.68,24.97,47.56,52.31,47.56s49.8-20.88,52.31-47.56c10.66-11.13,15.82-26.4,14.32-41.53Z"/>
        <path style="fill:#111" d="M104.73,57.36c-14.15,0-26.86,6.19-35.57,16h-26.36c0,11.85,4.34,22.69,11.51,31.01.67-4.16,1.83-8.21,3.43-12.06l1.05.28c-1.05,3.93-1.61,8.05-1.61,12.31,0,26.26,21.28,47.54,47.54,47.54s47.54-21.28,47.54-47.54c0-4.26-.56-8.38-1.61-12.31l1.05-.28c1.61,3.85,2.76,7.89,3.43,12.06,7.17-8.33,11.51-19.16,11.51-31.01h-26.36c-8.71-9.81-21.41-16-35.57-16ZM104.73,139.93c-19.1,0-35.25-10.36-40.63-24.63,7.44,5.14,20.24,8.76,35.13,9.48l4.5-2.6v-1.16l-5.91-3.41,1.97-3.42c1.58.31,3.23.48,4.93.48s3.35-.17,4.93-.48l1.97,3.42-5.91,3.41v1.16l4.5,2.6c14.89-.72,27.68-4.34,35.13-9.48-5.38,14.27-21.53,24.63-40.63,24.63ZM72.9,101.32c.19-1.09,2.4-1.45,5.87-1.22l3.03,8.32c-5.87-1.2-9.67-2.7-9.41-4.2.03-.16.1-.3.21-.43l2.66.47.12-.68c-1.7-.72-2.62-1.49-2.48-2.25ZM96.54,108.47c-.24,1.35-3.57,1.58-8.56.97l2.68-7.37c4.12,1.06,6.61,2.29,6.39,3.51-.03.16-.1.3-.21.43l-2.66-.47-.12.68c1.7.72,2.62,1.49,2.48,2.25ZM133.96,102.95c1.85.1,2.97.5,3.1,1.26.26,1.5-3.53,3-9.41,4.2l3.03-8.32c3.47-.22,5.68.13,5.87,1.22.03.16.01.32-.05.47l-2.66.47.12.68ZM118.79,102.07l2.68,7.37c-4.99.61-8.33.39-8.56-.97-.03-.16-.01-.32.05-.47l2.66-.47-.12-.68c-1.85-.1-2.97-.5-3.1-1.26-.22-1.23,2.28-2.45,6.39-3.51ZM104.73,84.88c-17.21,0-32.29,3.85-40.63,9.62,5.38-14.27,21.53-24.63,40.63-24.63s35.25,10.36,40.63,24.63c-8.34-5.77-23.42-9.62-40.63-9.62ZM108.91,134.69l2.76-5.91c.16-.35.49-.59.88-.64.39-.05.76.11,1.01.41l3.64,4.54,2.13-5.15c.14-.33.43-.58.78-.66.35-.08.72.02.99.26l3.4,3.04,1.72-4.18c.12-.29.35-.52.65-.62.29-.11.62-.09.9.05l2.71,1.39c.09.05.2.06.3.02.1-.03.18-.11.22-.2l1.03-2.23c.38-.83,1.25-1.32,2.16-1.22l.82.09c.62.07,1.22-.17,1.63-.64l1.63-1.88c.22-.26.61-.28.87-.06.26.22.28.61.06.87l-1.63,1.88c-.67.77-1.68,1.17-2.7,1.05l-.82-.09c-.38-.04-.74.16-.9.51l-1.03,2.23c-.19.4-.52.71-.94.85-.42.15-.87.11-1.27-.09l-2.6-1.33-1.74,4.21c-.14.33-.43.58-.78.66-.35.08-.73-.02-.99-.26l-3.4-3.04-2.14,5.18c-.15.37-.48.62-.88.68-.4.06-.78-.1-1.03-.41l-3.65-4.55-2.77,5.95c-.18.38-.55.63-.96.64-.02,0-.03,0-.05,0-.4,0-.77-.21-.97-.56l-3.23-5.59-3.23,5.59c-.21.36-.6.58-1.02.56-.42-.02-.79-.27-.96-.64l-2.77-5.95-3.65,4.55c-.25.31-.64.46-1.03.41-.4-.06-.72-.31-.88-.68l-2.14-5.18-3.4,3.04c-.27.24-.64.34-.99.26-.35-.08-.65-.33-.78-.66l-1.74-4.21-2.6,1.33c-.4.2-.85.23-1.27.09-.42-.15-.76-.45-.94-.85l-1.03-2.23c-.16-.35-.52-.55-.9-.51l-.82.09c-1.02.11-2.02-.28-2.7-1.05l-1.63-1.88c-.22-.26-.2-.65.06-.87.26-.22.65-.2.87.06l1.63,1.88c.41.47,1.01.7,1.63.64l.82-.09c.91-.1,1.77.39,2.16,1.22l1.03,2.23c.04.1.12.17.22.2.1.03.21.03.3-.02l2.71-1.39c.28-.14.6-.16.9-.05.29.11.53.33.65.62l1.72,4.18,3.4-3.04c.27-.24.64-.34.99-.26.35.08.65.33.78.66l2.13,5.15,3.64-4.54c.24-.3.62-.46,1.01-.41.39.05.72.28.88.64l2.76,5.91,3.22-5.58c.2-.35.56-.56.97-.56.4,0,.77.21.97.56l3.22,5.58Z"/>
      </g>
    </g>
  </g>
</svg>
